<svg width="32" height="33" viewBox="0 0 32 33" fill="none" xmlns="http://www.w3.org/2000/svg">
<path fill-rule="evenodd" clip-rule="evenodd" d="M31.1524 5.52288C31.6271 6.78236 31.879 8.11483 31.8969 9.46068C31.996 11.1534 31.9964 11.707 31.9999 15.9917L32 16.0515C32 20.3927 31.9769 20.9347 31.9005 22.6442C31.8738 23.9751 31.6233 25.2865 31.1559 26.5304C30.7438 27.5925 30.1149 28.5571 29.3094 29.3627C28.5038 30.1682 27.5392 30.7971 26.4771 31.2092C25.2339 31.6759 23.9203 31.9277 22.5926 31.9538C20.8956 32.0533 20.3394 32.0533 16 32.0533C11.6606 32.0533 11.1186 32.0302 9.40738 31.9538C8.07707 31.91 6.76399 31.6396 5.52466 31.1542C4.46213 30.7429 3.49707 30.1146 2.69113 29.3092C1.8852 28.5039 1.25611 27.5393 0.844069 26.4771C0.376721 25.2315 0.126166 23.92 0.0995113 22.5908C0 20.892 0 20.3376 0 15.9982C0 11.6588 0.0231008 11.1168 0.0995113 9.4056C0.124608 8.07838 0.376421 6.76523 0.844069 5.52288C1.25542 4.46034 1.88404 3.49537 2.68971 2.68971C3.49537 1.88404 4.46034 1.25542 5.52288 0.84407C6.76561 0.377553 8.07847 0.125196 9.4056 0.0977345C11.1026 0 11.6588 0 15.9982 0C20.3376 0 20.8796 0.021324 22.5891 0.0977345C23.9168 0.124996 25.2303 0.377356 26.4736 0.84407C27.5359 1.25571 28.5008 1.88443 29.3064 2.69006C30.112 3.49569 30.7407 4.46051 31.1524 5.52288ZM7.77254 15.9893C7.77254 20.5278 11.4491 24.2044 15.9876 24.2044C18.1663 24.2044 20.2558 23.3388 21.7965 21.7982C23.3371 20.2576 24.2026 18.1681 24.2026 15.9893C24.2026 13.8106 23.3371 11.7211 21.7965 10.1804C20.2558 8.63983 18.1663 7.77432 15.9876 7.77432C11.4491 7.77432 7.77254 11.4509 7.77254 15.9893ZM23.7962 9.24071C24.0287 9.3369 24.2779 9.38628 24.5295 9.38605C25.5869 9.38605 26.4434 8.52954 26.4434 7.47046C26.4434 7.21902 26.3938 6.97004 26.2976 6.73773C26.2014 6.50543 26.0604 6.29435 25.8826 6.11656C25.7048 5.93876 25.4937 5.79772 25.2614 5.7015C25.0291 5.60528 24.7801 5.55575 24.5287 5.55575C24.2772 5.55575 24.0282 5.60528 23.7959 5.7015C23.5636 5.79772 23.3526 5.93876 23.1748 6.11656C22.997 6.29435 22.8559 6.50543 22.7597 6.73773C22.6635 6.97004 22.6139 7.21902 22.6139 7.47046C22.6137 7.72208 22.6631 7.97128 22.7593 8.2038C22.8555 8.43632 22.9966 8.64758 23.1745 8.82551C23.3524 9.00343 23.5637 9.14453 23.7962 9.24071ZM21.3239 15.9895C21.3239 18.9367 18.9347 21.3258 15.9876 21.3258C13.0404 21.3258 10.6513 18.9367 10.6513 15.9895C10.6513 13.0424 13.0404 10.6533 15.9876 10.6533C18.9347 10.6533 21.3239 13.0424 21.3239 15.9895Z" fill="#F2DBB2"/>
</svg>
