<svg width="33" height="33" viewBox="0 0 33 33" fill="none" xmlns="http://www.w3.org/2000/svg">
<path d="M16.1796 0.733643C7.37928 0.733643 0.178837 7.93408 0.178837 16.7344C0.178837 25.5332 7.37928 32.7336 16.1796 32.7336C24.9784 32.7336 32.1788 25.5332 32.1788 16.7344C32.1788 7.93408 25.0585 0.733643 16.1796 0.733643ZM23.5386 23.8532C23.2199 24.3321 22.6594 24.4938 22.1773 24.1751C18.4154 21.8529 13.6957 21.3724 8.09516 22.6521C7.53783 22.8154 7.05737 22.415 6.89722 21.933C6.73547 21.3724 7.13585 20.8952 7.6179 20.7334C13.6957 19.3721 18.9775 19.9343 23.1366 22.4951C23.6972 22.7337 23.7773 23.3728 23.5386 23.8532ZM25.4605 19.4538C25.0585 20.0128 24.3394 20.253 23.7773 19.8526C19.458 17.2165 12.8997 16.4125 7.85973 18.0141C7.22233 18.1758 6.49844 17.8539 6.33989 17.2165C6.17814 16.5727 6.50004 15.852 7.13905 15.6919C12.9782 13.9334 20.1802 14.8142 25.1385 17.8555C25.619 18.0941 25.8592 18.8933 25.4605 19.4538V19.4538ZM25.619 14.9712C20.4989 11.9331 11.9388 11.6128 7.05737 13.1358C6.68615 13.2428 6.28798 13.2026 5.9456 13.0237C5.60321 12.8447 5.34293 12.5408 5.21882 12.1749C5.10996 11.8032 5.149 11.4039 5.32779 11.0603C5.50658 10.7168 5.81127 10.4556 6.17814 10.3316C11.8587 8.65156 21.2196 8.97027 27.1404 12.4952C27.8595 12.894 28.0998 13.8549 27.6994 14.574C27.299 15.1345 26.3397 15.3715 25.619 14.9712Z" fill="#F2DBB2"/>
</svg>
