<svg width="33" height="27" viewBox="0 0 33 27" fill="none" xmlns="http://www.w3.org/2000/svg">
<path d="M29.0718 6.80075C29.093 7.08571 29.093 7.36904 29.093 7.65237C29.093 16.3232 22.4934 26.3147 10.4323 26.3147C6.71645 26.3147 3.26438 25.2384 0.359436 23.369C0.887016 23.4293 1.39506 23.4505 1.9438 23.4505C4.89596 23.4576 7.76452 22.4704 10.0871 20.6481C8.71836 20.6233 7.39152 20.1717 6.29184 19.3564C5.19217 18.5411 4.37455 17.4027 3.95317 16.1002C4.35862 16.1604 4.7657 16.2011 5.19233 16.2011C5.78016 16.2011 6.37124 16.1197 6.91999 15.978C5.43456 15.6781 4.09886 14.873 3.14001 13.6995C2.18116 12.526 1.65835 11.0566 1.66047 9.54124V9.45982C2.53489 9.94669 3.54934 10.2512 4.62404 10.2919C3.72372 9.69362 2.98548 8.8818 2.47519 7.92885C1.96491 6.97589 1.69844 5.91145 1.69955 4.83047C1.69955 3.61248 2.02359 2.49544 2.59188 1.5217C4.23998 3.549 6.29553 5.20753 8.6254 6.38986C10.9553 7.57218 13.5075 8.25195 16.1168 8.38512C16.0159 7.89662 15.954 7.39021 15.954 6.88217C15.9536 6.02072 16.1229 5.16763 16.4524 4.37167C16.7818 3.57571 17.265 2.85249 17.8741 2.24335C18.4832 1.63422 19.2064 1.15111 20.0024 0.82164C20.7984 0.492175 21.6515 0.322815 22.5129 0.323243C24.4018 0.323243 26.1066 1.11461 27.3051 2.39448C28.7735 2.11053 30.1816 1.57449 31.4671 0.810114C30.9777 2.32579 29.9524 3.61102 28.5833 4.42501C29.8857 4.27648 31.1584 3.93399 32.3594 3.40893C31.4624 4.71665 30.3509 5.86339 29.0718 6.80075V6.80075Z" fill="#F2DBB2"/>
</svg>
